<svg xmlns="http://www.w3.org/2000/svg" width="515" height="693" viewBox="0 0 515 693" fill="none">
<path d="M439.52 93.1485C397.82 41.1785 336.93 8.21858 270.63 1.72858C128.72 -14.1114 20.0498 81.5485 7.49977 180.648C-3.95023 270.818 51.2498 349.539 159.29 396.889L206.33 416.959C284.74 451.459 309.98 473.099 304.65 502.269H365.65C372.39 423.859 284.89 385.449 230.32 361.139L183.28 341.069C135.45 320.369 56.8898 272.539 67.5498 188.179C76.3298 119.179 159.13 50.4986 263.88 62.7286C313.87 67.2786 359.93 91.7586 391.68 130.629C414.54 157.259 425.83 191.929 423.04 226.909C420.88 244.579 414.59 261.499 404.69 276.309L453.46 312.219C469.11 289.219 479.05 262.819 482.47 235.229C487.69 184.029 472.21 132.879 439.5 93.1585" fill="#153556"/>
<path d="M332.73 282.259L284.12 261.719C208.69 228.479 182.35 208.089 182.98 179.859H120.26C119.01 256.849 201.64 293.549 258.88 318.639L307.49 339.339C356.57 360.819 437.33 409.899 426.35 496.149C417.25 567.189 332.26 637.279 224.69 625.989C173.38 621.079 126.21 595.769 93.7499 555.739C70.6699 528.169 59.3899 492.619 62.3899 456.789C64.9799 436.399 72.8799 417.039 85.2799 400.649L35.4099 363.959C16.7299 388.809 4.82995 418.109 0.909946 448.949C-4.11005 501.289 11.7799 553.499 45.1299 594.159C87.6699 647.379 149.83 681.279 217.62 688.249C228.57 689.409 239.56 689.989 250.55 689.969C380.55 689.969 477.3 598.859 489.22 504.459C501.14 410.059 443.59 331.029 332.72 282.259" fill="#153556"/>
</svg>
